<?xml version="1.0" encoding="utf-8"?>
<!-- Generator: Adobe Illustrator 15.0.0, SVG Export Plug-In  -->
<!DOCTYPE svg PUBLIC "-//W3C//DTD SVG 1.1//EN" "http://www.w3.org/Graphics/SVG/1.1/DTD/svg11.dtd" [
	<!ENTITY ns_flows "http://ns.adobe.com/Flows/1.0/">
]>
<svg version="1.1"
	 xmlns="http://www.w3.org/2000/svg" xmlns:xlink="http://www.w3.org/1999/xlink" xmlns:a="http://ns.adobe.com/AdobeSVGViewerExtensions/3.0/"
	 x="0px" y="0px" width="1024px" height="756px" viewBox="-123.068 -29.132 1024 756"
	 overflow="visible" enable-background="new -123.068 -29.132 1024 756" xml:space="preserve">
<defs>
	
		<pattern  x="-123.068" y="-29.132" width="18.474" height="18.175" patternUnits="userSpaceOnUse" id="New_Pattern_Swatch_3" viewBox="0 -18.175 18.474 18.175" overflow="visible">
		<g>
			<polygon fill="none" points="0,0 18.474,0 18.474,-18.175 0,-18.175 			"/>
			<g>
				<polygon fill="none" points="0,-18.175 18.474,-18.175 18.474,0 0,0 				"/>
				<polygon fill="#E0E0E0" points="9.438,-9.237 0,-9.237 0,0 9.438,0 				"/>
				<polygon fill="#E0E0E0" points="18.474,-18.175 9.036,-18.175 9.036,-8.938 18.474,-8.938 				"/>
			</g>
		</g>
	</pattern>
</defs>
<pattern  id="SVGID_1_" xlink:href="#New_Pattern_Swatch_3" patternTransform="matrix(1 0 0 -1 108.0034 -13460.3398)">
</pattern>
<circle fill="url(#SVGID_1_)" cx="473.019" cy="449.452" r="176.991"/>
<circle fill="#EB5B8C" cx="249.53" cy="398.365" r="176.992"/>
<circle fill="#3C3C3B" cx="426.522" cy="221.373" r="176.992"/>
<g>
	<g>
		<path fill="#009FE3" d="M216.327,166.238C222.399,82.11,304.526,24.33,381.194,8.729c19.434-3.955,39.464-5.234,59.205-3.145
			c20.881,2.211,41.036,9.336,60.226,17.594c38.788,16.693,74.275,42.877,96.863,79.033
			c29.245,46.811,30.466,104.032,16.786,156.169c-0.293,1.117,0.902,4.425,2.321,4.333c22.736-1.478,41.501,15.445,55.133,31.699
			c14.293,17.042,25.629,37.174,33.523,57.935c18.643,49.025,19.248,105.809,8.878,156.739
			c-4.877,23.956-13.078,46.559-25.188,67.802c-12.429,21.801-28.214,41.68-46.407,58.943
			c-35.793,33.963-82.89,57.184-132.892,56.878c-79.477-0.486-139.951-57.591-199.194-102.882c-0.213-0.163-0.511-0.258-0.658,0.038
			c-18.063,36.273-56.677,50.707-95.242,51.377c-37.91,0.658-77.947-9.943-110.248-29.889
			c-87.728-54.171-123.695-171.582-86.847-266.8c17.114-44.224,47.946-83.73,86.888-110.792
			c21.385-14.86,44.693-26.224,69.84-33.108c11.486-3.145,23.479-5.432,35.281-6.973c9.074-1.185,20.484-0.878,27.652-7.463
			c1.053-0.967-1.604-5.025-2.171-4.504c-7.727,7.098-20.46,6.42-30.207,7.812c-13.234,1.889-26.517,4.675-39.331,8.518
			c-27.041,8.109-52.133,22.041-74.317,39.392c-40.803,31.914-71.205,78.247-84.33,128.318
			c-23.881,91.103,17.111,199.718,97.854,249.309c32.134,19.736,70.424,30.378,108.103,30.721
			c36.903,0.336,75.233-11.725,95.57-44.506c1.243-2.003,2.362-4.081,3.44-6.177c0.549-1.066,6.738,4.247,7.444,4.795
			c5.435,4.22,10.831,8.49,16.226,12.761c10.298,8.153,20.587,16.317,31.064,24.241c20.287,15.342,41.466,29.604,64.481,40.547
			c23.71,11.274,49.651,18.536,75.941,19.681c24.052,1.046,48.055-3.778,70.338-12.689c45.395-18.152,83.018-53.651,108.911-94.599
			c26.824-42.417,36.983-92.389,36.984-142.133c0.001-41.914-8.021-84.26-28.105-121.333c-9.17-16.927-20.208-33.125-33.965-46.67
			c-12.449-12.258-28.488-22.669-46.621-21.49c0.773,1.444,1.547,2.888,2.321,4.333c10.784-41.106,12.492-84.403-1.007-125.085
			c-12.239-36.884-36.965-68.187-68.037-91.135c-17.281-12.764-36.484-22.815-56.38-30.829
			c-19.135-7.706-38.764-13.555-59.404-15.034c-39.776-2.852-80.283,7.788-115.543,25.795
			c-52.432,26.776-98.232,75.356-102.642,136.441C213.649,163.86,216.221,167.704,216.327,166.238L216.327,166.238z"/>
	</g>
</g>
</svg>
